<svg xmlns="http://www.w3.org/2000/svg" viewBox="0 0 512 512" xml:space="preserve"><path style="fill:#fff" d="M167.107 499.053c-.853-3.413-1.707-9.387-1.707-12.8 0-20.48 17.92-37.547 39.253-37.547h3.413c-2.56-5.973-4.267-12.8-5.973-18.773-23.893-7.68-40.96-36.693-40.96-71.68 0-30.72 13.653-57.173 33.28-68.267-10.24-4.267-19.627-10.24-28.16-16.213-26.453-20.48-40.96-47.787-40.96-76.8 0-4.267 0-7.68.853-11.947-10.24-6.827-17.067-20.48-17.067-34.987 0-18.773 11.093-34.133 25.6-39.253-4.267 0-7.68-.853-11.093-.853-23.04 0-40.96 17.92-40.96 40.96 0 14.507 7.68 28.16 19.627 34.987-.853 3.413-.853 7.68-.853 11.947 0 29.013 17.067 56.32 47.787 76.8 10.24 6.827 20.48 11.947 32.427 16.213-23.04 11.093-39.253 37.547-39.253 68.267 0 34.987 20.48 64 47.787 71.68 2.56 6.827 4.267 12.8 6.827 18.773h-4.267c-24.747 0-46.08 17.067-46.08 37.547 0 3.413.853 8.533 1.707 12.8.853 2.56 3.413 5.12 6.827 5.12h14.507c-.002-.854-2.562-3.414-2.562-5.974" transform="translate(1 1)"/><path style="fill:#ffe100" d="M266.093 92.867h-2.56c-4.267-1.707-6.827-5.973-5.973-10.24l21.333-71.68c2.56-7.68 10.24-11.947 17.92-10.24L357.4 17.773c4.267 1.707 6.827 5.973 5.973 10.24-1.707 4.267-5.973 6.827-10.24 5.973L295.107 16.92l-21.333 69.973c-.854 3.414-4.267 5.974-7.681 5.974" transform="translate(1 1)"/><path style="fill:#ffe100" d="M253.293 84.333c-34.133.853-69.12 16.213-93.867 34.133-5.973-6.827-14.507-10.24-23.04-10.24-19.627 0-34.987 17.92-34.987 40.96 0 14.507 6.827 28.16 17.067 34.987-.853 3.413-.853 7.68-.853 11.947 0 29.013 14.507 56.32 40.96 76.8 8.533 6.827 17.92 11.947 28.16 16.213-19.627 11.093-33.28 37.547-33.28 68.267 0 34.987 17.92 64 40.96 71.68 1.707 6.827 4.267 12.8 5.973 18.773h-3.413c-21.333 0-39.253 17.067-39.253 37.547 0 3.413.853 8.533 1.707 12.8.853 2.56 3.413 5.12 5.973 5.12h177.493c2.56 0 5.12-1.707 5.973-5.12s0-9.387 0-11.947c0-20.48-15.36-37.547-36.693-37.547h-2.56c2.56-5.973 4.267-12.8 5.973-18.773 23.893-7.68 40.96-36.693 40.96-71.68 0-30.72-13.653-57.173-33.28-68.267 10.24-4.267 19.627-10.24 28.16-16.213 26.453-20.48 40.96-47.787 40.96-76.8 0-4.267 0-7.68-.853-11.947 10.24-6.827 17.067-20.48 17.067-34.987 0-22.187-15.36-40.96-34.987-40.96-8.533 0-17.067 4.267-23.04 10.24-23.893-17.92-57.173-33.28-89.6-34.133h-7.68z" transform="translate(1 1)"/><path style="fill:#ffa800" d="M432.493 150.893c0-22.187-17.92-40.96-40.96-40.96-3.413 0-6.827.853-10.24 1.707 14.507 5.12 25.6 20.48 25.6 39.253 0 14.507-6.827 28.16-17.067 34.987.853 3.413.853 7.68.853 11.947 0 29.013-14.507 56.32-40.96 76.8-8.533 6.827-17.92 11.947-28.16 16.213 19.627 11.093 33.28 37.547 33.28 68.267 0 34.987-17.92 64-40.96 71.68-1.707 6.827-4.267 12.8-5.973 18.773h2.56c21.333 0 36.693 17.067 36.693 37.547 0 3.413.853 8.533 0 11.947-.853 2.56-3.413 5.12-5.973 5.12h14.507c3.413 0 5.973-1.707 6.827-5.12.853-3.413 0-9.387 0-11.947 0-20.48-17.92-37.547-42.667-37.547h-2.56c2.56-5.973 5.12-12.8 6.827-18.773 27.307-7.68 47.787-36.693 47.787-71.68 0-30.72-16.213-57.173-39.253-68.267 11.947-4.267 22.187-10.24 32.427-16.213 30.72-20.48 47.787-47.787 47.787-76.8 0-4.267 0-7.68-.853-11.947 11.945-7.68 20.478-20.48 20.478-34.987m-25.6-109.226c0-18.773-15.36-34.133-34.133-34.133s-34.133 15.36-34.133 34.133S353.987 75.8 372.76 75.8s34.133-15.36 34.133-34.133" transform="translate(1 1)"/><path style="fill:#ffe100" d="M389.827 41.667c0-18.773-11.093-34.133-25.6-34.133s-25.6 15.36-25.6 34.133S349.72 75.8 364.227 75.8s25.6-15.36 25.6-34.133" transform="translate(1 1)"/><path style="fill:#63d3fd" d="M227.693 178.2c0-14.507-11.093-25.6-25.6-25.6s-25.6 11.093-25.6 25.6 11.093 25.6 25.6 25.6 25.6-11.093 25.6-25.6m102.4 0c0-14.507-11.093-25.6-25.6-25.6s-25.6 11.093-25.6 25.6 11.093 25.6 25.6 25.6 25.6-11.093 25.6-25.6" transform="translate(1 1)"/><path style="fill:#3db9f9" d="M267.8 459.8h-25.6c-23.04-13.653-40.107-56.32-40.107-108.373 0-11.947.853-23.893 2.56-34.987 15.36 4.267 32.427 6.827 50.347 6.827s34.133-2.56 50.347-6.827c1.707 11.093 2.56 23.04 2.56 34.987 0 52.053-17.067 94.72-40.107 108.373" transform="translate(1 1)"/><path style="fill:#63d3fd" d="M247.32 459.8h-5.973c-22.187-13.653-39.253-56.32-39.253-108.373 0-11.947.853-23.893 2.56-34.987 15.36 4.267 32.427 6.827 50.347 6.827s14.507-2.56 29.867-6.827c1.707 11.093 2.56 23.04 2.56 34.987-.001 52.053-17.068 94.72-40.108 108.373" transform="translate(1 1)"/><path style="fill:#020202" d="M202.093 212.333c-18.773 0-34.133-15.36-34.133-34.133s15.36-34.133 34.133-34.133 34.133 15.36 34.133 34.133-15.359 34.133-34.133 34.133m0-51.2c-9.387 0-17.067 7.68-17.067 17.067s7.68 17.067 17.067 17.067 17.067-7.68 17.067-17.067-7.68-17.067-17.067-17.067m102.4 51.2c-18.773 0-34.133-15.36-34.133-34.133s15.36-34.133 34.133-34.133 34.133 15.36 34.133 34.133-15.359 34.133-34.133 34.133m0-51.2c-9.387 0-17.067 7.68-17.067 17.067s7.68 17.067 17.067 17.067 17.067-7.68 17.067-17.067-7.68-17.067-17.067-17.067m-51.2 102.4c-23.04 0-45.227-7.68-57.173-19.627-3.413-3.413-3.413-8.533 0-11.947s8.533-3.413 11.947 0c6.827 6.827 22.187 14.507 45.227 14.507s38.4-7.68 45.227-14.507c3.413-3.413 8.533-3.413 11.947 0s3.413 8.533 0 11.947c-11.948 11.947-34.135 19.627-57.175 19.627" transform="translate(1 1)"/><path style="fill:#020202" d="M357.4 511H150.893c-6.827 0-12.8-4.267-14.507-10.24-1.707-5.12-2.56-11.947-2.56-15.36 0-23.04 19.627-41.813 46.08-46.08-.853-1.707-.853-2.56-1.707-4.267-29.867-10.24-50.347-41.813-50.347-78.507 0-27.307 11.093-51.2 29.867-66.56-6.827-3.413-12.8-6.827-18.773-11.093-33.28-22.187-52.053-51.2-52.053-83.627v-7.68c-11.947-9.387-19.627-23.893-19.627-39.253 0-27.307 22.187-49.493 49.493-49.493 10.24 0 19.627 2.56 27.307 8.533 33.28-18.773 73.387-30.72 109.227-31.573h8.533c34.133 1.707 72.533 13.653 104.107 32.427 7.68-5.12 17.92-8.533 27.307-8.533 27.307 0 49.493 22.187 49.493 49.493 0 15.36-7.68 29.867-19.627 39.253v7.68c0 32.427-18.773 61.44-52.053 83.627-5.973 4.267-11.947 7.68-18.773 11.093 17.92 15.36 29.867 40.107 29.867 66.56 0 36.693-20.48 68.267-50.347 78.507-.853 1.707-.853 2.56-1.707 4.267 23.893 4.267 41.813 22.187 41.813 45.227v2.56c0 3.413.853 8.533-.853 11.947C370.2 506.733 364.227 511 357.4 511m-205.653-17.067h203.947v-8.534c0-17.067-14.507-29.013-34.133-29.013h-2.56c-2.56 0-5.973-.853-7.68-3.413s-1.707-5.973-.853-8.533c2.56-5.973 5.12-11.947 6.827-17.92.853-2.56 3.413-5.12 5.973-5.973 23.893-6.827 41.813-33.28 41.813-63.147 0-26.453-13.653-51.2-34.133-60.587q-5.12-2.56-5.12-7.68c0-3.413 2.56-6.827 5.12-7.68q16.64-6.4 30.72-15.36c28.16-18.773 44.373-43.52 44.373-69.12 0-3.413 0-6.827-.853-10.24s.853-6.827 4.267-8.533c9.387-5.973 15.36-16.213 15.36-27.307 0-17.92-14.507-32.427-32.427-32.427-7.68 0-15.36 2.56-21.333 8.533-2.56 2.56-6.827 2.56-10.24.853C330.947 108.227 293.4 96.28 260.12 94.573h-8.533c-34.133.853-73.387 12.8-104.96 33.28-3.413 1.707-7.68 1.707-10.24-.853-5.973-5.12-13.653-8.533-21.333-8.533-17.92 0-32.427 14.507-32.427 32.427 0 11.093 5.973 22.187 15.36 27.307 3.413 1.707 4.267 5.12 4.267 8.533-.853 3.413-.853 6.827-.853 10.24 0 26.453 15.36 50.347 44.373 69.12q14.08 8.96 30.72 15.36c3.413.853 5.12 4.267 5.12 7.68s-1.707 6.827-5.12 7.68c-20.48 9.387-34.133 34.133-34.133 60.587 0 29.867 17.92 57.173 41.813 63.147 2.56.853 5.12 2.56 5.973 5.973 1.707 5.973 4.267 12.8 6.827 18.773.853 2.56.853 5.973-.853 8.533s-4.267 3.413-7.68 3.413h-3.413c-17.067-.853-34.133 11.947-34.133 28.16-.002 1.707.852 5.973.852 8.533" transform="translate(1 1)"/><path style="fill:#020202" d="M253.293 92.867h-2.56c-4.267-1.707-6.827-5.973-5.973-10.24l21.333-71.68c2.56-7.68 10.24-11.947 17.92-10.24L344.6 17.773c4.267 1.707 6.827 5.973 5.973 10.24-1.707 4.267-5.973 6.827-10.24 5.973L282.307 16.92l-20.48 69.973c-1.707 3.414-5.12 5.974-8.534 5.974" transform="translate(1 1)"/><path style="fill:#020202" d="M372.76 84.333c-23.893 0-42.667-18.773-42.667-42.667S348.867-1 372.76-1s42.667 18.773 42.667 42.667-18.774 42.666-42.667 42.666m0-68.266c-14.507 0-25.6 11.093-25.6 25.6s11.093 25.6 25.6 25.6 25.6-11.093 25.6-25.6-11.093-25.6-25.6-25.6M267.8 468.333h-25.6c-1.707 0-2.56 0-4.267-.853-26.453-15.36-44.373-61.44-44.373-115.2 0-11.947.853-24.747 2.56-35.84 0-2.56 1.707-4.267 4.267-5.973 1.707-1.707 4.267-1.707 6.827-.853 29.867 9.387 64.853 9.387 95.573 0 2.56-.853 5.12 0 6.827.853 1.707 1.707 3.413 3.413 4.267 5.973a253 253 0 0 1 2.56 35.84c0 53.76-17.92 100.693-44.373 115.2-.855.853-2.561.853-4.268.853m-23.04-17.066h21.333c19.627-12.8 33.28-54.613 33.28-99.84 0-8.533-.853-16.213-1.707-23.893-27.307 6.827-58.027 6.827-85.333 0-.853 7.68-1.707 16.213-1.707 23.893.854 45.226 14.507 87.04 34.134 99.84" transform="translate(1 1)"/></svg>