<svg width="100" height="100" viewBox="0 0 100 100" xml:space="preserve" xmlns="http://www.w3.org/2000/svg"><g/><path d="M97.5 49.589c.053-9.279-11.282-14.251-18.049-7.909-8.007-5.538-19.573-8.178-30.978-7.957l6.711-20.48 18.386 4.329c-1.248 5.306 2.969 11.025 8.685 10.894 11.81-.467 11.813-17.343 0-17.811-3.152 0-5.912 1.645-7.495 4.116l-20.228-4.762a1.5 1.5 0 0 0-1.77.993l-7.49 22.86c-9.329.625-18.315 3.182-24.885 7.67-6.79-6.125-17.956-1.125-17.886 8.056 0 3.732 1.934 7.199 5.11 9.16-3.747 41.619 87.766 41.734 84.423.213a10.69 10.69 0 0 0 5.466-9.372m-68.464 7.196c0-3.614 3.045-6.647 6.673-6.647 8.646.341 8.74 12.894 0 13.193-3.629 0-6.673-2.933-6.673-6.546m36.272 18.638c-5.496 6.356-25.13 6.358-30.623 0-1.616-1.677.829-4.134 2.512-2.51 4.166 4.965 21.434 4.962 25.603 0 1.667-1.618 4.135.832 2.508 2.51m-.919-12.067c-3.615 0-6.651-2.942-6.651-6.571.404-8.778 12.833-8.881 13.193 0 0 3.629-2.927 6.571-6.542 6.571" style="fill:#ff3a00"/></svg>